<?xml version="1.0"?>
<svg version="1.1" xmlns="http://www.w3.org/2000/svg" width="400" height="200" style="border: dashed 2px #aaa"><path fill="#ffffff" d="M32.78,107.728l0,5.992s-2.968,1.68-7.14,1.68c-5.6,0-8.96-3.36-8.96-9.66c0-6.44,3.64-10.5,9.38-10.5c3.08,0,6.3,1.4,6.3,1.4l-0.14,4.62l-1.82,0l-0.84-3.08s-1.68-0.56-3.78-0.56c-3.78,0-5.88,2.8-5.88,7.98c0,5.04,2.52,7.42,6.16,7.42c1.96,0,3.92-0.7,3.92-0.7l0-4.592l-2.38-0.56l0-1.54l7.28-0.14l0,1.68z M39.1808,115.12l0-1.68l2.38-0.56l0-15.12l-2.38-0.56l0-1.54l7.7-0.14l0,1.68l-2.38,0.56l0,15.12l2.38,0.56l0,1.68l-7.7,0z M53.7016,115.12l0-1.68l2.8-0.56l0-15.12l-3.64,0l-0.7,2.8l-1.82,0l0-5.04l15.26,0l0,5.04l-1.82,0l-0.7-2.8l-3.64,0l0,15.12l2.8,0.56l0,1.68l-8.54,0z"/><path fill="#" d=""/></svg>
