<?xml version="1.0"?>
<svg version="1.1" xmlns="http://www.w3.org/2000/svg" width="398" height="129" style=""><path fill="#1e9e7e" d="M72.3,113.6c0,0.9-0.4,1.5-1.6,2c-6.6,2.7-12.6,4.1-19.9,4.1c-21.1,0-31.4-14.9-31.4-35.5c0-20.5,12.3-36.2,32.4-36.2c6.9,0,13.1,1.4,18.8,4.2c1.2,0.6,1.6,1.1,1.6,1.7c0,0.4-0.1,0.8-0.3,1.3l-2.3,6.3c-0.3,0.9-0.8,1.3-1.4,1.3c-0.3,0-0.7-0.2-1.1-0.4c-5-2.6-9.5-3.6-14.5-3.6c-13.9,0-19.3,12.8-19.3,24.9c0,15.4,7.2,25.2,19.5,25.2c4.8,0,9.7-1.1,14.4-3.2c0.5-0.2,0.9-0.4,1.2-0.4c0.7,0,1.2,0.5,1.6,1.5l2,5.4c0.2,0.5,0.3,1,0.3,1.4z M137.35,117.3c0,0.8-0.6,1.2-1.5,1.2l-9.1,0c-1.8,0-3-0.5-3.9-2l-14.4-23.5l-7.7,0l0,23c0,1.5-0.6,2.5-2.3,2.5l-8.2,0c-1.7,0-2.4-0.8-2.4-2.5l0-63.8c0-2.2,0.5-2.9,2.7-2.9l14.8,0c8.7,0,17.9,1.3,23.2,7.4c3.2,3.7,4.8,8.6,4.8,14c0,9.2-4.9,16.4-12.9,19.9l16.4,25.3c0.3,0.5,0.5,1,0.5,1.4z M120.25,70.9c0-8.7-5.8-11.8-14.5-11.8l-5,0l0,24.2l6.2,0c8,0,13.3-4.3,13.3-12.4z M195.2,116.1c0,1.6-0.7,2.4-2.4,2.4l-37.1,0c-2,0-2.7-0.5-2.7-2.7l0-64c0-1.6,0.7-2.5,2.3-2.5l37.7,0c1.6,0,2.1,0.6,2.1,1.7l0,0.6l-0.7,6c-0.2,1.8-1.3,2.1-3.4,2.1l-25.1,0l0,18.1l23.1,0c1.9,0,2.5,0.8,2.5,2.2l0,5.7c0,1.7-0.7,2.4-2.4,2.4l-23.2,0l0,20l26.8,0c1.7,0,2.5,0.7,2.5,2.3l0,5.7z M268.95,116.9c0,1-0.5,1.6-1.8,1.6l-8.9,0c-2.1,0-2.8-0.8-3.4-2.4l-5.2-14.7l-25.3,0l-5.2,15c-0.4,1.3-1.1,2.1-2.7,2.1l-8.9,0c-1,0-1.4-0.5-1.4-1.3c0-0.3,0-0.7,0.2-1.1l24.4-64.8c0.5-1.2,1.2-2,2.7-2l8,0c1.5,0,2.4,0.7,2.8,1.8l24.5,64.5c0.2,0.5,0.2,0.9,0.2,1.3z M246.25,91.7l-7.1-21.1c-0.9-2.8-1.5-4.9-2-6.5l-0.2,0c-0.5,1.7-1.1,3.8-2.1,6.6l-7.1,21l18.5,0z M332.9,51.8l-0.7,5.8c-0.2,1.7-1.3,2.1-3.1,2.1l-18.1,0l0,56.5c0,1.9-0.4,2.3-2.1,2.3l-8.8,0c-1.8,0-2.1-0.4-2.1-2.2l0-56.6l-18.7,0c-1.7,0-2.3-0.7-2.3-2.4l0-5.9c0-1.5,0.7-2.1,2.2-2.1l50.6,0c2.6,0,3.3,0.8,3.1,2.5z M388.65,116.1c0,1.6-0.7,2.4-2.4,2.4l-37.1,0c-2,0-2.7-0.5-2.7-2.7l0-64c0-1.6,0.7-2.5,2.3-2.5l37.7,0c1.6,0,2.1,0.6,2.1,1.7l0,0.6l-0.7,6c-0.2,1.8-1.3,2.1-3.4,2.1l-25.1,0l0,18.1l23.1,0c1.9,0,2.5,0.8,2.5,2.2l0,5.7c0,1.7-0.7,2.4-2.4,2.4l-23.2,0l0,20l26.8,0c1.7,0,2.5,0.7,2.5,2.3l0,5.7z"/><path fill="#" d=""/></svg>
